<?xml version="1.0" encoding="utf-8"?>
<svg version="1.1" xmlns:xlink="http://www.w3.org/1999/xlink" width="417px" height="174px" xmlns="http://www.w3.org/2000/svg">
  <g transform="matrix(1 0 0 1 -40 -167 )">
    <path d="M 415.686170212766 172.5  L 3.7531914893617 172.5  C 3.7531914893617 172.5  -4.2468085106383 0  3.7531914893617 0  C 11.7531914893617 0  14 14  20 61  C 26 108  24.0000000000001 70  25 108  C 26 146  25.0000000000001 120  25 135  C 25 150  138.04024691715 140.148337975461  150 140.333333333333  C 171.549645390071 140.666666666667  175.659574468085 140  197 140.333333333333  C 218.340425531915 140.666666666667  216.538050418863 134.93703363434  241 140.333333333333  C 254.599290780142 143.333333333333  250.902482269504 132.5  269 135  C 287.097517730497 137.5  287.868794326241 134.666666666667  309 135  C 330.131205673759 135.333333333333  364.937876483479 134.857545288032  386 135  C 408.759078129549 135.153932148249  396 104  399 75  C 402 46  406.647872340426 30  415.686170212766 31  C 415.937234042553 31.6  415.686170212766 172.5  415.686170212766 172.5  Z " fill-rule="nonzero" fill="#b29d7c" stroke="none" transform="matrix(1 0 0 1 40 167 )" />
  </g>
</svg>